<?xml version="1.0" standalone="no"?>
<!DOCTYPE svg PUBLIC "-//W3C//DTD SVG 20010904//EN"
 "http://www.w3.org/TR/2001/REC-SVG-20010904/DTD/svg10.dtd">
<svg version="1.0" xmlns="http://www.w3.org/2000/svg"
 width="16.000000pt" height="16.000000pt" viewBox="0 0 16.000000 16.000000"
 preserveAspectRatio="xMidYMid meet">
<metadata>
Created by potrace 1.11, written by Peter Selinger 2001-2013
</metadata>
<g transform="translate(0.000000,16.000000) scale(0.010667,-0.010667)"
fill="#000000" stroke="none">
<path d="M375 1210 c-3 -11 -11 -20 -16 -20 -6 0 -8 -4 -5 -9 6 -9 -7 -170
-23 -283 -8 -60 -6 -64 62 -161 17 -24 17 -28 3 -49 -24 -33 -20 -63 9 -76 18
-8 32 -9 49 -1 20 9 30 6 65 -19 23 -17 49 -28 57 -25 28 10 13 -21 -41 -88
-30 -37 -55 -71 -55 -75 0 -8 31 -33 42 -34 3 0 20 19 37 42 l30 41 -6 -51
c-5 -47 -4 -50 18 -54 22 -3 23 -8 27 -88 2 -47 9 -91 16 -97 6 -8 50 -15 100
-18 77 -5 92 -3 123 15 22 13 39 17 42 11 14 -22 135 -29 198 -12 29 8 59 29
98 69 78 78 90 92 109 130 15 30 14 37 -8 33 -5 -1 -6 13 -2 31 4 18 10 70 13
116 6 80 5 84 -31 157 -20 41 -41 75 -46 75 -12 0 -126 -80 -114 -80 5 -1 -3
-6 -18 -13 -15 -7 -41 -29 -57 -51 -19 -24 -31 -33 -31 -23 0 9 20 37 44 62
42 44 45 75 4 38 -26 -23 -78 -103 -78 -120 0 -7 -16 -35 -35 -62 -19 -26 -35
-53 -35 -59 0 -6 -5 -12 -12 -14 -6 -2 -11 -19 -11 -36 0 -56 -17 -19 -24 50
-5 63 -4 68 21 91 14 13 26 29 26 35 0 7 12 19 28 29 15 10 33 23 40 30 7 7
18 13 23 13 6 0 7 5 4 10 -3 6 -1 10 5 10 6 0 8 6 4 13 -4 6 -4 9 1 5 4 -4 13
-2 19 5 33 35 48 75 57 155 5 48 14 114 20 147 22 118 22 134 5 141 -9 4 -25
-1 -35 -10 -24 -22 -33 -21 -86 13 -87 55 -175 76 -320 76 -144 0 -207 -5
-216 -19 -4 -5 -17 -1 -30 8 -32 22 -56 20 -64 -4z"/>
<path d="M1205 956 c-24 -36 -4 -74 39 -72 27 2 31 5 31 31 0 33 -20 65 -41
65 -8 0 -21 -11 -29 -24z"/>
<path d="M303 434 c-28 -31 -28 -28 -1 -64 35 -48 98 -39 98 14 0 70 -55 98
-97 50z"/>
</g>
</svg>
